# xmcd CD database file
#
# Track frame offsets:
#	150
#	29358
#	45874
#	64946
#	73160
#	86222
#	112347
#	132884
#	148748
#	171205
#	224075
#
# Disc length: 3002 seconds
#
# Revision: 0
# Processed by: cddbd v1.5PL3 Copyright (c) Steve Scherf et al.
# Submitted via: CDex 1.50beta8
#
DISCID=b00bb80b
DTITLE=鷲崎健 自転車操業 - アコースティックギターオタクブルース
DYEAR=2003
DGENRE=Blues
TTITLE0=フラフラ節
TTITLE1=ザッツマイナンバー
TTITLE2=ヨウコソココヘ
TTITLE3=スペランカー(カバー曲)
TTITLE4=ハムスター(カバー曲)
TTITLE5=voices...
TTITLE6=地に足
TTITLE7=夢で会いましょう
TTITLE8=boy my boy
TTITLE9=メンバー紹介
TTITLE10=歌詞データ
EXTD=YEAR: 2003
EXTT0=
EXTT1=
EXTT2=
EXTT3=
EXTT4=
EXTT5=
EXTT6=
EXTT7=
EXTT8=
EXTT9=
EXTT10=
PLAYORDER=
